<svg xmlns="http://www.w3.org/2000/svg" viewBox="0 0 512 512" role="img" aria-labelledby="title desc">
  <title id="title">AIGCTP Life Planet Icon</title>
  <desc id="desc">A cute life planet icon for an AI assistant that helps with travel, food, shopping, and recommendations.</desc>
  <defs>
    <linearGradient id="sky" x1="90" y1="44" x2="422" y2="468" gradientUnits="userSpaceOnUse">
      <stop offset="0" stop-color="#A7F3D0"/>
      <stop offset="0.46" stop-color="#7DD3FC"/>
      <stop offset="1" stop-color="#FDBA74"/>
    </linearGradient>
    <linearGradient id="planet" x1="150" y1="132" x2="356" y2="374" gradientUnits="userSpaceOnUse">
      <stop offset="0" stop-color="#FFF7ED"/>
      <stop offset="0.55" stop-color="#ECFDF5"/>
      <stop offset="1" stop-color="#DBEAFE"/>
    </linearGradient>
    <linearGradient id="land" x1="136" y1="226" x2="374" y2="330" gradientUnits="userSpaceOnUse">
      <stop offset="0" stop-color="#34D399"/>
      <stop offset="1" stop-color="#22C55E"/>
    </linearGradient>
    <filter id="softShadow" x="-30%" y="-30%" width="160%" height="160%">
      <feDropShadow dx="0" dy="18" stdDeviation="18" flood-color="#0F172A" flood-opacity="0.18"/>
    </filter>
  </defs>

  <rect width="512" height="512" rx="116" fill="url(#sky)"/>
  <circle cx="96" cy="98" r="18" fill="#FFFFFF" opacity="0.72"/>
  <circle cx="420" cy="118" r="26" fill="#FFFFFF" opacity="0.55"/>
  <circle cx="424" cy="384" r="18" fill="#FFFFFF" opacity="0.58"/>
  <path d="M82 330C123 389 187 425 263 423C351 421 420 360 438 277" fill="none" stroke="#FFFFFF" stroke-width="18" stroke-linecap="round" opacity="0.34"/>

  <g filter="url(#softShadow)">
    <circle cx="256" cy="260" r="136" fill="url(#planet)"/>
    <path d="M138 276C164 242 206 231 245 251C284 271 312 272 362 240C378 258 389 284 392 312C352 353 305 374 254 371C204 368 164 337 138 276Z" fill="url(#land)" opacity="0.92"/>
    <path d="M161 197C190 172 225 159 260 161C301 164 336 184 360 216" fill="none" stroke="#38BDF8" stroke-width="18" stroke-linecap="round" opacity="0.38"/>
    <path d="M169 310C219 288 288 293 342 326" fill="none" stroke="#FBBF24" stroke-width="14" stroke-linecap="round" opacity="0.72"/>
    <circle cx="256" cy="260" r="136" fill="none" stroke="#FFFFFF" stroke-width="14" opacity="0.9"/>
  </g>

  <g fill="none" stroke="#0F172A" stroke-width="9" stroke-linecap="round" stroke-linejoin="round">
    <path d="M214 215C204 225 204 241 214 251"/>
    <path d="M298 215C308 225 308 241 298 251"/>
    <path d="M230 225H230.5"/>
    <path d="M282 225H282.5"/>
    <path d="M234 273C248 287 267 287 281 273"/>
    <path d="M256 196V176"/>
    <path d="M240 176H272"/>
  </g>
  <circle cx="256" cy="176" r="12" fill="#FDE68A" stroke="#0F172A" stroke-width="7"/>

  <g stroke="#0F172A" stroke-width="7" stroke-linecap="round" stroke-linejoin="round">
    <g transform="translate(92 154)">
      <circle cx="34" cy="42" r="26" fill="#FFFFFF"/>
      <path d="M34 20C21 35 20 46 34 65C48 46 47 35 34 20Z" fill="#FB7185"/>
      <circle cx="34" cy="39" r="7" fill="#FFFFFF" stroke-width="5"/>
    </g>
    <g transform="translate(348 157)">
      <circle cx="42" cy="42" r="28" fill="#FFFFFF"/>
      <path d="M27 48H57" />
      <path d="M33 30L31 49" />
      <path d="M51 30L53 49" />
      <path d="M31 30H53" />
      <path d="M25 54C34 65 51 65 59 54" fill="none"/>
    </g>
    <g transform="translate(94 332)">
      <circle cx="38" cy="38" r="28" fill="#FFFFFF"/>
      <path d="M23 36H55L50 54H28L23 36Z" fill="#93C5FD"/>
      <path d="M32 36C32 24 46 24 46 36" fill="none"/>
    </g>
    <g transform="translate(346 333)">
      <circle cx="38" cy="38" r="28" fill="#FFFFFF"/>
      <path d="M25 44C36 30 48 29 58 39" fill="none"/>
      <path d="M25 44L36 53L57 39" fill="#FCD34D"/>
      <circle cx="25" cy="44" r="5" fill="#34D399"/>
      <circle cx="58" cy="39" r="5" fill="#FB7185"/>
    </g>
  </g>

  <path d="M108 256C150 218 192 205 237 223C280 241 313 238 360 203" fill="none" stroke="#FFFFFF" stroke-width="10" stroke-linecap="round" stroke-dasharray="2 22" opacity="0.85"/>
  <path d="M154 415C126 402 105 382 92 356" fill="none" stroke="#FFFFFF" stroke-width="12" stroke-linecap="round" opacity="0.45"/>
</svg>
