<svg xmlns="http://www.w3.org/2000/svg" viewBox="0 0 512 512" role="img" aria-labelledby="title desc">
  <title id="title">AIGCTP Icon</title>
  <desc id="desc">AI life recommendation system icon with agent network, travel, diet, restaurant, and commerce signals.</desc>
  <defs>
    <linearGradient id="bg" x1="80" y1="48" x2="430" y2="464" gradientUnits="userSpaceOnUse">
      <stop offset="0" stop-color="#0F766E"/>
      <stop offset="0.52" stop-color="#2563EB"/>
      <stop offset="1" stop-color="#111827"/>
    </linearGradient>
    <linearGradient id="core" x1="160" y1="126" x2="352" y2="386" gradientUnits="userSpaceOnUse">
      <stop offset="0" stop-color="#F8FAFC"/>
      <stop offset="1" stop-color="#DFF6F1"/>
    </linearGradient>
    <filter id="shadow" x="-20%" y="-20%" width="140%" height="140%">
      <feDropShadow dx="0" dy="18" stdDeviation="18" flood-color="#020617" flood-opacity="0.28"/>
    </filter>
  </defs>
  <rect width="512" height="512" rx="108" fill="url(#bg)"/>
  <path d="M92 352C137 415 211 448 286 432C369 414 426 343 424 259C422 171 354 95 266 84C186 74 112 121 84 194C62 251 64 306 92 352Z" fill="#FFFFFF" opacity="0.08"/>
  <path d="M96 168C158 120 250 111 326 149C385 179 423 235 431 296" fill="none" stroke="#FFFFFF" stroke-width="16" stroke-linecap="round" opacity="0.12"/>
  <g filter="url(#shadow)">
    <circle cx="256" cy="256" r="118" fill="url(#core)"/>
    <circle cx="256" cy="256" r="92" fill="none" stroke="#0F766E" stroke-width="10" opacity="0.18"/>
  </g>
  <g fill="none" stroke="#E0F2FE" stroke-width="12" stroke-linecap="round" stroke-linejoin="round" opacity="0.9">
    <path d="M256 139V94"/>
    <path d="M342 172L379 135"/>
    <path d="M374 256H425"/>
    <path d="M342 340L380 378"/>
    <path d="M256 373V422"/>
    <path d="M170 340L132 378"/>
    <path d="M138 256H88"/>
    <path d="M170 172L133 135"/>
  </g>
  <g fill="#F8FAFC" stroke="#0F172A" stroke-width="8" stroke-linejoin="round">
    <circle cx="256" cy="94" r="28"/>
    <circle cx="398" cy="135" r="28"/>
    <circle cx="425" cy="256" r="28"/>
    <circle cx="398" cy="378" r="28"/>
    <circle cx="256" cy="422" r="28"/>
    <circle cx="114" cy="378" r="28"/>
    <circle cx="88" cy="256" r="28"/>
    <circle cx="114" cy="135" r="28"/>
  </g>
  <g fill="none" stroke="#0F172A" stroke-width="9" stroke-linecap="round" stroke-linejoin="round">
    <path d="M256 224C238 224 224 238 224 256C224 274 238 288 256 288C274 288 288 274 288 256C288 238 274 224 256 224Z"/>
    <path d="M256 192V224"/>
    <path d="M256 288V320"/>
    <path d="M192 256H224"/>
    <path d="M288 256H320"/>
    <path d="M211 211L232 232"/>
    <path d="M280 280L301 301"/>
    <path d="M301 211L280 232"/>
    <path d="M232 280L211 301"/>
  </g>
  <g fill="#0F172A">
    <path d="M256 80L244 108H268L256 80Z"/>
    <path d="M388 124H410L399 150L388 124Z"/>
    <path d="M412 246H438V266H412V246Z"/>
    <path d="M386 369H410V383H386V369ZM390 353H406L414 369H382L390 353Z"/>
    <path d="M244 413H268V431H244V413Z"/>
    <path d="M104 369H125L114 392L104 369Z"/>
    <path d="M76 250H100V262H76V250ZM80 238H96V250H80V238Z"/>
    <path d="M104 123H124V147H104V123ZM99 133H129V141H99V133Z"/>
  </g>
  <text x="256" y="267" text-anchor="middle" font-family="Inter, Segoe UI, Arial, sans-serif" font-size="62" font-weight="800" fill="#0F172A">AI</text>
  <text x="256" y="319" text-anchor="middle" font-family="Inter, Segoe UI, Arial, sans-serif" font-size="34" font-weight="700" fill="#0F766E">LIFE</text>
</svg>
