<svg xmlns="http://www.w3.org/2000/svg" viewBox="0 0 640 640">
  <rect width="640" height="640" fill="#ecfeff"/>
  <ellipse cx="320" cy="510" rx="150" ry="34" fill="#0f172a" opacity=".1"/>
  <circle cx="320" cy="266" r="142" fill="#cffafe" stroke="#0891b2" stroke-width="14"/>
  <circle cx="320" cy="266" r="34" fill="#0891b2"/>
  <path d="M320 232c-38-86 58-112 72-34 10 55-37 80-72 34zm34 34c86-38 112 58 34 72-55 10-80-37-34-72zm-34 34c38 86-58 112-72 34-10-55 37-80 72-34zm-34-34c-86 38-112-58-34-72 55-10 80 37 34 72z" fill="#67e8f9"/>
  <path d="M320 408v74M246 500h148" stroke="#0891b2" stroke-width="22" stroke-linecap="round"/>
</svg>
