<svg xmlns="http://www.w3.org/2000/svg" viewBox="0 0 640 640">
  <defs><linearGradient id="bg" x1="0" x2="1" y1="0" y2="1"><stop stop-color="#ecfeff"/><stop offset="1" stop-color="#fdf2f8"/></linearGradient></defs>
  <rect width="640" height="640" fill="url(#bg)"/>
  <ellipse cx="320" cy="502" rx="150" ry="36" fill="#0f172a" opacity=".12"/>
  <path d="M222 234c0-61 43-103 98-103s98 42 98 103v222c0 29-23 52-52 52h-92c-29 0-52-23-52-52V234z" fill="#20b7a8"/>
  <path d="M246 252h148v184c0 24-19 43-43 43h-62c-24 0-43-19-43-43V252z" fill="#14a092"/>
  <path d="M260 230c8-36 30-58 60-58s52 22 60 58" fill="none" stroke="#0f766e" stroke-width="20" stroke-linecap="round"/>
  <rect x="264" y="304" width="112" height="76" rx="22" fill="#fff7ed"/>
  <path d="M222 304h-34c-16 0-29 13-29 29v76c0 16 13 29 29 29h34" fill="none" stroke="#0f766e" stroke-width="18" stroke-linecap="round"/>
  <path d="M418 304h34c16 0 29 13 29 29v76c0 16-13 29-29 29h-34" fill="none" stroke="#0f766e" stroke-width="18" stroke-linecap="round"/>
  <circle cx="289" cy="342" r="10" fill="#f59e0b"/><circle cx="351" cy="342" r="10" fill="#f59e0b"/>
</svg>
